<svg xmlns="http://www.w3.org/2000/svg" xml:space="preserve" width="100%" height="100%" version="1.1" shape-rendering="geometricPrecision" text-rendering="geometricPrecision" image-rendering="optimizeQuality" fill-rule="evenodd" clip-rule="evenodd"
viewBox="0 0 2099999 2099999">
  <polygon fill="#6FDCFF" points="0,0 2099999,0 2099999,2099999 0,2099999 "/>
  <path fill="#FFE400" d="M1389562 1049999c-1979,181049 -157489,327300 -348997,327300l1 2c-191507,-2 -347017,-146253 -348995,-327302 1978,-181049 157488,-327300 348995,-327302l-1 2c191508,0 347018,146251 348997,327300zm-708968 0c-1252,-16294 -16586,-32123 -44852,-27479 -18775,5451 -86062,19398 -119994,27479 33932,8081 101219,22028 119994,27479 28266,4644 43600,-11185 44852,-27479zm897552 0c18710,-3570 32127,-6403 32127,-7381l-141504 -29531c-34567,-6086 -48474,17880 -41977,36912 -6497,19032 7410,42998 41977,36912l141504 -29531c0,-978 -13417,-3811 -32127,-7381zm-639708 -524997c2871,-820 49219,101309 62344,123867 20507,51680 -56602,69727 -59473,13535l-3281 -137402 410 0zm239120 6152c2871,410 0,111563 2051,136992 -3691,55371 -82031,41426 -59883,-11074l57422 -125918 410 0zm199336 88594c2461,1641 -45117,103359 -53320,127148 -25840,49629 -92285,8613 -50859,-31992l104180 -95156 -1 0zm140273 141914c1641,2461 -80801,81211 -98027,100898 -42656,37324 -89414,-23789 -35273,-47578l133301 -53320 -1 0zm73008 164063c1230,2461 -104180,50858 -127148,64394 -53320,22148 -76699,-50038 -17227,-55780l144375 -8613 0 -1zm-1100448 25839c410,-2461 117715,-820 144375,-2871 58242,2871 44297,77108 -11484,57011l-132891 -54140zm100488 -219023c1641,-2461 106641,47578 131250,57012 50859,26660 4102,87773 -36504,46348l-94746 -103359 0 -1zm170625 -145195c2461,-1230 77520,84082 96387,102129 35684,43887 -32813,82031 -52910,28711l-43477 -130840zm291210 -71368c2871,0 26660,108691 34453,132891 9434,54551 -70137,57422 -61523,1641l27070 -134531 0 -1zm426973 187032c2051,2051 -80801,80801 -98027,100078 -43066,37734 -89414,-23379 -35273,-47168l133301 -53320 -1 410zm-188262 -132891c2871,1230 -24609,109102 -28301,134121 -15996,53320 -89414,24609 -56191,-22969l84902 -110742 -410 -410zm-626308 84902c2051,-2051 98438,61523 121406,74238 46348,33633 -9023,87773 -43066,41016l-77930 -115254 -410 0zm897011 187442c1230,2461 -94336,66855 -114844,83262 -49219,30352 -84082,-37324 -26250,-52090l141094 -31172zm-715722 -292852c2871,-1230 66855,91875 83262,111973 29941,47578 -42656,77930 -56191,22969l-27070 -134941 -1 -1zm-317871 284239c1230,-2461 114844,24609 141504,28711 55781,15586 24609,84492 -24609,52500l-116895 -81211zm410567 741146c2871,820 49219,-101309 62344,-123867 20507,-51680 -56602,-69727 -59473,-13535l-3281 137402 410 0zm239120 -6152c2871,-410 0,-111563 2051,-136992 -3691,-55371 -82031,-41426 -59883,11074l57422 125918 410 0zm199336 -88594c2461,-1641 -45117,-103359 -53320,-127148 -25840,-49629 -92285,-8613 -50859,31992l104180 95156 -1 0zm140273 -141914c1641,-2461 -80801,-81211 -98027,-100898 -42656,-37324 -89414,23789 -35273,47578l133301 53320 -1 0zm73008 -164063c1230,-2461 -104180,-50858 -127148,-64394 -53320,-22148 -76699,50038 -17227,55780l144375 8613 0 1zm-1100448 -25839c410,2461 117715,820 144375,2871 58242,-2871 44297,-77108 -11484,-57011l-132891 54140zm100488 219023c1641,2461 106641,-47578 131250,-57012 50859,-26660 4102,-87773 -36504,-46348l-94746 103359 0 1zm170625 145195c2461,1230 77520,-84082 96387,-102129 35684,-43887 -32813,-82031 -52910,-28711l-43477 130840zm291210 71368c2871,0 26660,-108691 34453,-132891 9434,-54551 -70137,-57422 -61523,-1641l27070 134531 0 1zm426973 -187032c2051,-2051 -80801,-80801 -98027,-100078 -43066,-37734 -89414,23379 -35273,47168l133301 53320 -1 -410zm-188262 132891c2871,-1230 -24609,-109102 -28301,-134121 -15996,-53320 -89414,-24609 -56191,22969l84902 110742 -410 410zm-626308 -84902c2051,2051 98438,-61523 121406,-74238 46348,-33633 -9023,-87773 -43066,-41016l-77930 115254 -410 0zm897011 -187442c1230,-2461 -94336,-66855 -114844,-83262 -49219,-30352 -84082,37324 -26250,52090l141094 31172zm-715722 292852c2871,1230 66855,-91875 83262,-111973 29941,-47578 -42656,-77930 -56191,-22969l-27070 134941 -1 1zm-317871 -284239c1230,2461 114844,-24609 141504,-28711 55781,-15586 24609,-84492 -24609,-52500l-116895 81211z"/>
</svg>
